<svg xmlns="http://www.w3.org/2000/svg" width="512" height="512" viewBox="0 0 512 512">
  <defs>
    <linearGradient id="bg" x1="0%" y1="0%" x2="100%" y2="100%">
      <stop offset="0%" style="stop-color:#4f46e5"/>
      <stop offset="100%" style="stop-color:#7c3aed"/>
    </linearGradient>
  </defs>
  <rect width="512" height="512" rx="100" fill="url(#bg)"/>
  <g transform="translate(96, 96) scale(16)" stroke="white" stroke-width="1.5" fill="none" stroke-linecap="round" stroke-linejoin="round">
    <path d="m10 2.5-1.594 4.844a1.667 1.667 0 0 1-1.062 1.062L2.5 10l4.844 1.594a1.667 1.667 0 0 1 1.062 1.062L10 17.5l1.594-4.844a1.667 1.667 0 0 1 1.062-1.062L17.5 10l-4.844-1.594a1.667 1.667 0 0 1-1.062-1.062L10 2.5Z"/>
    <path d="M4.167 2.5v3.333"/>
    <path d="M15.833 14.167V17.5"/>
    <path d="M2.5 4.167h3.333"/>
    <path d="M14.167 15.833H17.5"/>
  </g>
</svg>
